# xmcd
#
# Track frame offsets:
#	150
#	9600
#	18480
#	26205
#	35723
#	44453
#	53131
#	62604
#	71522
#	79157
#	88675
#	97353
#
# Disc length: 1414 seconds
#
# Revision: 1
# Processed by: cddbd v1.5.2PL0 Copyright (c) Steve Scherf et al.
# Submitted via: audiograbber 1.83.01
#
DISCID=a405840c
DTITLE=The Chuck Wagon Gang - He Walks With Me
DYEAR=1963
DGENRE=Gospel
TTITLE0=Hear The Gospel Story And Believe
TTITLE1=I Can Do So Little, Lord
TTITLE2=Happy And Free
TTITLE3=I Was Not There
TTITLE4=In The Service Of The King
TTITLE5=Come Out Of The Night (And Into The Light)
TTITLE6=The The Lord Came Forth!
TTITLE7=The Early Morning Hours
TTITLE8=He Walks With Me
TTITLE9=Fight The Good Fight
TTITLE10=I Thank My God
TTITLE11=The Great Day
EXTD=this is from my LP that i have converted to a CD
EXTT0=
EXTT1=
EXTT2=
EXTT3=
EXTT4=
EXTT5=
EXTT6=
EXTT7=
EXTT8=
EXTT9=
EXTT10=
EXTT11=
PLAYORDER=
